# xmcd CD database file
#
# Track frame offsets:
#	150
#	29534
#	54516
#	87155
#	111920
#	143257
#	163644
#	189274
#	217327
#	239226
#
# Disc length: 3556 seconds
#
# Revision: 0
# Processed by: cddbd v1.5.2PL0 Copyright (c) Steve Scherf et al.
# Submitted via: CDex 1.70beta2
#
DISCID=8c0de20a
DTITLE=Joe Cohn - Shared Contemplations
DYEAR=2009
DGENRE=Jazz
TTITLE0=Just One Of Those Things
TTITLE1=You Turned The Tables On Me
TTITLE2=I Gotta Right To Sing The Blues
TTITLE3=I Love You, Samantha
TTITLE4=Blue Serge
TTITLE5=Something For Lisa
TTITLE6=Man With A Horn
TTITLE7=49th Street
TTITLE8=Barbados
TTITLE9=Danielle
EXTD=YEAR: 2009
EXTT0=
EXTT1=
EXTT2=
EXTT3=
EXTT4=
EXTT5=
EXTT6=
EXTT7=
EXTT8=
EXTT9=
PLAYORDER=
